# xmcd
#
# Track frame offsets: 
#        150
#        18715
#        37532
#        50595
#        66605
#        79313
#        94057
#        110191
#        125858
#        143315
#        160827
#        174286
#
# Disc length: 2553 seconds
#
# Revision: 0
# Processed by: cddbd v1.5.2PL0 Copyright (c) Steve Scherf et al.
# Submitted via: ExactAudioCopy v1.0b1
#
DISCID=a209f70c
DTITLE=Jesse Terry - The Runner
DYEAR=2009
DGENRE=Country
TTITLE0=The Runner
TTITLE1=Devil Will Dance
TTITLE2=Pray It's Not The Delta
TTITLE3=Against The Tide
TTITLE4=Noise
TTITLE5=Lay Your Hands On Me
TTITLE6=Edges
TTITLE7=Loveless Motel
TTITLE8=A Refuge
TTITLE9=Sedona
TTITLE10=Ghost Town
TTITLE11=Africa
EXTD=
EXTT0=
EXTT1=
EXTT2=
EXTT3=
EXTT4=
EXTT5=
EXTT6=
EXTT7=
EXTT8=
EXTT9=
EXTT10=
EXTT11=
PLAYORDER=
